<svg width="252" height="257" viewBox="0 0 252 257" fill="none" xmlns="http://www.w3.org/2000/svg">
<rect x="108.836" y="171.297" width="131.956" height="1.72975" transform="rotate(-74.4289 108.836 171.297)" fill="#D9D9D9"/>
<rect x="142.249" y="55.632" width="12.1731" height="1.72975" transform="rotate(-74.4289 142.249 55.632)" fill="#D9D9D9"/>
<rect x="158.144" y="29.7899" width="26.8111" height="2.82067" transform="rotate(15.5711 158.144 29.7899)" fill="#D9D9D9"/>
<path d="M157.47 32.2108L145.923 44.6485L144.257 44.1842L158.144 29.7896L157.47 32.2108Z" fill="#D9D9D9"/>
<path d="M158.917 31.8747L146.696 45.1594L145.03 44.6951L158.917 30.3005L158.917 31.8747Z" fill="#D9D9D9"/>
<path d="M183.971 36.9866L190.079 56.9531L188.413 56.4887L183.002 39.3489L183.971 36.9866Z" fill="#D9D9D9"/>
<rect x="139.104" y="197.996" width="26.8111" height="2.51344" transform="rotate(-164.429 139.104 197.996)" fill="#D9D9D9"/>
<path d="M139.779 195.575L152.992 183.601L154.658 184.066L139.104 197.996L139.779 195.575Z" fill="#D9D9D9"/>
<path d="M113.277 190.799L108.836 171.297L110.502 171.761L113.952 188.378L113.277 190.799Z" fill="#D9D9D9"/>
<rect x="152.13" y="200.522" width="149.782" height="1.72975" transform="rotate(-125.67 152.13 200.522)" fill="#D9D9D9"/>
<rect x="77.9439" y="94.9054" width="20.403" height="1.72975" transform="rotate(-125.67 77.9439 94.9054)" fill="#D9D9D9"/>
<rect x="60.8729" y="57.0701" width="26.811" height="4.06063" transform="rotate(-35.6702 60.8729 57.0701)" fill="#D9D9D9"/>
<path d="M62.5363 59.3875L66.1946 77.8328L64.7894 78.8415L60.8727 57.0698L62.5363 59.3875Z" fill="#D9D9D9"/>
<path d="M64.5277 59.0947L68.3249 78.8405L66.0211 79.0804L62.148 57.3216L64.5277 59.0947Z" fill="#D9D9D9"/>
<path d="M82.6537 41.4358L103.433 51.1036L102.028 52.1123L84.2735 44.665L82.6537 41.4358Z" fill="#D9D9D9"/>
<rect x="193.285" y="195.565" width="26.8111" height="2.85298" transform="rotate(144.33 193.285 195.565)" fill="#D9D9D9"/>
<path d="M191.621 193.247L189.368 173.793L190.773 172.784L193.285 195.565L191.621 193.247Z" fill="#D9D9D9"/>
<path d="M171.504 211.199L152.13 200.522L153.535 199.513L169.84 208.881L171.504 211.199Z" fill="#D9D9D9"/>
<rect x="189.368" y="173.793" width="149.782" height="1.72975" transform="rotate(-125.67 189.368 173.793)" fill="#D9D9D9"/>
<rect x="69.8595" y="156.193" width="131.956" height="1.44898" transform="rotate(-27.4762 69.8595 156.193)" fill="#D9D9D9"/>
<rect x="206.217" y="94.2646" width="22.4592" height="2.51344" transform="rotate(62.5238 206.217 94.2646)" fill="#D9D9D9"/>
<path d="M203.987 95.4241L187.599 96.5971L186.931 95.3116L206.217 94.2645L203.987 95.4241Z" fill="#D9D9D9"/>
<path d="M216.58 114.19L205.315 130.664L204.647 129.378L214.35 115.35L216.58 114.19Z" fill="#D9D9D9"/>
<rect x="68.2892" y="191.307" width="22.4592" height="3.16436" transform="rotate(-117.476 68.2892 191.307)" fill="#D9D9D9"/>
<path d="M70.5191 190.148L87.5756 190.26L88.2442 191.546L68.2892 191.307L70.5191 190.148Z" fill="#D9D9D9"/>
<path d="M70.7266 188.804L87.6764 189.135L88.2153 190.686L68.3957 190.17L70.7266 188.804Z" fill="#D9D9D9"/>
<path d="M57.9269 171.381L69.8595 156.193L70.5281 157.479L60.7304 169.975L57.9269 171.381Z" fill="#D9D9D9"/>
<g clip-path="url(#clip0_8_478)">
<path d="M77.882 90.9965L75.473 90.9941L75.472 91.918L77.881 91.9204L77.882 90.9965Z" fill="#D9D9D9"/>
<path d="M79.7124 92.4966L77.8828 90.9941L77.2559 91.6958L79.0855 93.1983L79.7124 92.4966Z" fill="#D9D9D9"/>
<path d="M79.7118 94.8061L79.7143 92.4964L78.7507 92.4954L78.7482 94.8052L79.7118 94.8061Z" fill="#D9D9D9"/>
<path d="M75.475 90.9983L77.8786 91.0007L77.8776 91.9246L75.474 91.9222L75.475 90.9983Z" fill="#D9D9D9"/>
<path d="M73.6455 92.4948L75.4742 90.9959L76.0981 91.6988L74.2694 93.1977L73.6455 92.4948Z" fill="#D9D9D9"/>
<path d="M73.6411 94.8043L73.6436 92.4945L74.605 92.4955L74.6025 94.8052L73.6411 94.8043Z" fill="#D9D9D9"/>
<path d="M77.882 97.0422L75.473 97.0446L75.472 96.1207L77.881 96.1183L77.882 97.0422Z" fill="#D9D9D9"/>
<path d="M79.7124 95.542L77.8828 97.0446L77.2559 96.3429L79.0855 94.8403L79.7124 95.542Z" fill="#D9D9D9"/>
<path d="M79.7118 93.2324L79.7143 95.5422L78.7507 95.5432L78.7482 93.2334L79.7118 93.2324Z" fill="#D9D9D9"/>
<path d="M75.475 97.0404L77.8786 97.038L77.8776 96.1141L75.474 96.1165L75.475 97.0404Z" fill="#D9D9D9"/>
<path d="M73.6455 95.5438L75.4742 97.0428L76.0981 96.3398L74.2694 94.8409L73.6455 95.5438Z" fill="#D9D9D9"/>
<path d="M73.6411 93.2343L73.6436 95.5441L74.605 95.5431L74.6025 93.2333L73.6411 93.2343Z" fill="#D9D9D9"/>
<path d="M78.8166 91.8444H74.4287V96.2146H78.8166V91.8444Z" fill="#D9D9D9"/>
</g>
<g clip-path="url(#clip1_8_478)">
<path d="M143.195 54.5427L140.786 54.5403L140.785 55.4642L143.194 55.4666L143.195 54.5427Z" fill="#D9D9D9"/>
<path d="M145.025 56.0429L143.196 54.5403L142.569 55.242L144.399 56.7446L145.025 56.0429Z" fill="#D9D9D9"/>
<path d="M145.025 58.3524L145.027 56.0427L144.064 56.0417L144.061 58.3515L145.025 58.3524Z" fill="#D9D9D9"/>
<path d="M140.788 54.5446L143.192 54.547L143.191 55.4709L140.787 55.4685L140.788 54.5446Z" fill="#D9D9D9"/>
<path d="M138.959 56.041L140.787 54.5422L141.411 55.2451L139.582 56.744L138.959 56.041Z" fill="#D9D9D9"/>
<path d="M138.954 58.3505L138.957 56.0408L139.918 56.0418L139.916 58.3515L138.954 58.3505Z" fill="#D9D9D9"/>
<path d="M143.195 60.5885L140.786 60.5909L140.785 59.6669L143.194 59.6645L143.195 60.5885Z" fill="#D9D9D9"/>
<path d="M145.025 59.0883L143.196 60.5909L142.569 59.8891L144.399 58.3866L145.025 59.0883Z" fill="#D9D9D9"/>
<path d="M145.025 56.7787L145.027 59.0885L144.064 59.0895L144.061 56.7796L145.025 56.7787Z" fill="#D9D9D9"/>
<path d="M140.788 60.5866L143.192 60.5843L143.191 59.6603L140.787 59.6627L140.788 60.5866Z" fill="#D9D9D9"/>
<path d="M138.959 59.0901L140.787 60.589L141.411 59.8861L139.582 58.3872L138.959 59.0901Z" fill="#D9D9D9"/>
<path d="M138.954 56.7805L138.957 59.0903L139.918 59.0894L139.916 56.7796L138.954 56.7805Z" fill="#D9D9D9"/>
<path d="M144.13 55.3907H139.742V59.7609H144.13V55.3907Z" fill="#D9D9D9"/>
</g>
<g clip-path="url(#clip2_8_478)">
<path d="M105.222 179.093L102.813 179.091L102.812 180.015L105.221 180.017L105.222 179.093Z" fill="#D9D9D9"/>
<path d="M107.053 180.593L105.223 179.091L104.596 179.792L106.426 181.295L107.053 180.593Z" fill="#D9D9D9"/>
<path d="M107.052 182.903L107.055 180.593L106.091 180.592L106.089 182.902L107.052 182.903Z" fill="#D9D9D9"/>
<path d="M102.815 179.095L105.219 179.097L105.218 180.021L102.814 180.019L102.815 179.095Z" fill="#D9D9D9"/>
<path d="M100.986 180.591L102.815 179.093L103.438 179.795L101.61 181.294L100.986 180.591Z" fill="#D9D9D9"/>
<path d="M100.981 182.901L100.984 180.591L101.945 180.592L101.943 182.902L100.981 182.901Z" fill="#D9D9D9"/>
<path d="M105.222 185.139L102.813 185.141L102.812 184.217L105.221 184.215L105.222 185.139Z" fill="#D9D9D9"/>
<path d="M107.053 183.639L105.223 185.141L104.596 184.439L106.426 182.937L107.053 183.639Z" fill="#D9D9D9"/>
<path d="M107.052 181.329L107.055 183.639L106.091 183.64L106.089 181.33L107.052 181.329Z" fill="#D9D9D9"/>
<path d="M102.815 185.137L105.219 185.135L105.218 184.211L102.814 184.213L102.815 185.137Z" fill="#D9D9D9"/>
<path d="M100.986 183.64L102.815 185.139L103.438 184.436L101.61 182.938L100.986 183.64Z" fill="#D9D9D9"/>
<path d="M100.981 181.331L100.984 183.641L101.945 183.64L101.943 181.33L100.981 181.331Z" fill="#D9D9D9"/>
<path d="M106.157 179.941H101.769V184.311H106.157V179.941Z" fill="#D9D9D9"/>
</g>
<g clip-path="url(#clip3_8_478)">
<path d="M156.917 103.19L134.634 103.166L134.625 112.174L156.908 112.198L156.917 103.19Z" fill="#FF4655"/>
<path d="M173.849 117.816L156.925 103.166L151.126 110.008L168.05 124.658L173.849 117.816Z" fill="#FF4655"/>
<path d="M173.843 140.334L173.866 117.814L164.953 117.804L164.93 140.324L173.843 140.334Z" fill="#FF4655"/>
<path d="M134.653 103.207L156.886 103.231L156.877 112.239L134.644 112.215L134.653 103.207Z" fill="#FF4655"/>
<path d="M117.73 117.798L134.646 103.184L140.417 110.038L123.501 124.652L117.73 117.798Z" fill="#FF4655"/>
<path d="M117.689 140.315L117.712 117.796L126.606 117.805L126.582 140.325L117.689 140.315Z" fill="#FF4655"/>
<path d="M156.917 162.135L134.634 162.159L134.625 153.15L156.908 153.127L156.917 162.135Z" fill="#FF4655"/>
<path d="M173.849 147.508L156.925 162.159L151.126 155.317L168.05 140.667L173.849 147.508Z" fill="#FF4655"/>
<path d="M173.843 124.99L173.866 147.511L164.953 147.52L164.93 124.999L173.843 124.99Z" fill="#FF4655"/>
<path d="M134.653 162.118L156.886 162.094L156.877 153.086L134.644 153.109L134.653 162.118Z" fill="#FF4655"/>
<path d="M117.73 147.526L134.646 162.141L140.417 155.287L123.501 140.673L117.73 147.526Z" fill="#FF4655"/>
<path d="M117.689 125.008L117.712 147.529L126.606 147.519L126.582 124.999L117.689 125.008Z" fill="#FF4655"/>
<path d="M165.563 111.457H124.975V154.066H165.563V111.457Z" fill="#FF4655"/>
</g>
<rect x="87.5756" y="190.26" width="131.956" height="1.44898" transform="rotate(-27.4762 87.5756 190.26)" fill="#D9D9D9"/>
<rect x="85.5965" y="189.47" width="18.3414" height="1.87353" transform="rotate(-27.4762 85.5965 189.47)" fill="#D9D9D9"/>
<rect x="152.992" y="183.601" width="131.956" height="1.72975" transform="rotate(-74.4289 152.992 183.601)" fill="#D9D9D9"/>
<defs>
<clipPath id="clip0_8_478">
<rect width="6.07563" height="6.07563" fill="white" transform="translate(73.6411 90.9917)"/>
</clipPath>
<clipPath id="clip1_8_478">
<rect width="6.07563" height="6.07563" fill="white" transform="translate(138.954 54.538)"/>
</clipPath>
<clipPath id="clip2_8_478">
<rect width="6.07563" height="6.07563" fill="white" transform="translate(100.981 179.088)"/>
</clipPath>
<clipPath id="clip3_8_478">
<rect width="56.1995" height="59.2374" fill="white" transform="translate(117.689 103.143)"/>
</clipPath>
</defs>
</svg>
